<svg width="18" height="22" viewBox="0 0 18 22" fill="none" xmlns="http://www.w3.org/2000/svg">
<path d="M1 21V3C1 2.84475 1.03614 2.69164 1.10557 2.55279C1.175 2.41393 1.2758 2.29315 1.4 2.2C2.43858 1.42107 3.70178 1 5 1C8 1 10 3 12.333 3C13.6663 3 14.6887 2.73333 15.4 2.2C15.5486 2.08857 15.7252 2.02072 15.9102 2.00404C16.0952 1.98736 16.2811 2.02252 16.4472 2.10557C16.6133 2.18863 16.753 2.31629 16.8507 2.47427C16.9483 2.63224 17 2.81429 17 3V13C17 13.1552 16.9639 13.3084 16.8944 13.4472C16.825 13.5861 16.7242 13.7069 16.6 13.8C15.5614 14.5789 14.2982 15 13 15C10 15 8 13 5 13C3.52412 13 2.10002 13.544 1 14.528" stroke="currentColor" stroke-width="2" stroke-linecap="round" stroke-linejoin="round"/>
</svg>
