<svg width="84" height="84" viewBox="0 0 84 84" fill="none" xmlns="http://www.w3.org/2000/svg">
<rect x="1" y="1" width="82" height="82" rx="9" fill="#FFF4ED" stroke="black" stroke-width="2"/>
<path d="M79 55L79 68C79 71.866 75.866 75 72 75L59 75" stroke="#141414" stroke-width="2" stroke-linecap="round"/>
<path d="M79 29L79 16C79 12.134 75.866 9 72 9L59 9" stroke="#141414" stroke-width="2" stroke-linecap="round"/>
<path d="M25 75L10 75C7.23858 75 5 72.7614 5 70L5 55" stroke="#141414" stroke-width="2" stroke-linecap="round"/>
<path d="M25 9H10C7.23858 9 5 11.2386 5 14V29" stroke="#141414" stroke-width="2" stroke-linecap="round"/>
<path d="M42 20C51.5434 20 60.1341 21.9367 66.3018 25.0205C72.529 28.1342 76 32.2504 76 36.5C76 40.7496 72.529 44.8658 66.3018 47.9795C60.1341 51.0633 51.5434 53 42 53C32.4566 53 23.8659 51.0633 17.6982 47.9795C11.471 44.8658 8 40.7496 8 36.5C8 32.2504 11.471 28.1342 17.6982 25.0205C23.8659 21.9367 32.4566 20 42 20Z" fill="#FF5A1F" stroke="#141414" stroke-width="2"/>
<path d="M13.5854 36.9142C14.5282 35.9714 15.471 35.0286 16.4138 34.0858C16.6291 34.2919 16.7748 34.6166 16.8076 34.8199C16.8466 35.0346 16.8258 35.1448 16.8179 35.2004C16.7956 35.3034 16.8068 35.2298 16.856 35.1427C16.9525 34.9558 17.1598 34.6671 17.3945 34.3977C19.0851 32.5098 21.6695 30.935 24.2688 29.8461C26.5094 28.9247 29.0937 28.381 31.6747 27.9988C32.9674 27.8105 34.2822 27.6668 35.5865 27.5674C36.2416 27.5177 36.8934 27.4791 37.5439 27.4555C37.8633 27.444 38.1927 27.4361 38.4935 27.4351C38.6563 27.4347 38.8051 27.4362 38.9349 27.4403C39.0045 27.4425 39.0639 27.4454 39.105 27.4485C39.1243 27.4499 39.1368 27.4517 39.1168 27.4492C39.1033 27.4472 39.077 27.444 39.0179 27.4313C38.9824 27.4218 38.9765 27.4277 38.8057 27.3702C38.6573 27.2785 38.3562 27.3322 37.7903 26.5384C37.4268 26.0126 37.4514 25.0981 37.675 24.692C37.8814 24.2558 38.0811 24.1019 38.2046 23.99C38.3776 23.851 38.3895 23.8545 38.4532 23.8136C38.5535 23.755 38.6043 23.7346 38.6262 23.7246C38.6614 23.7095 38.6665 23.7085 38.6581 23.7114C38.6449 23.7162 38.5935 23.733 38.547 23.747C38.4478 23.7772 38.3315 23.8102 38.2003 23.8463C37.9631 23.9114 37.6835 23.9846 37.4319 24.0499C36.9041 24.1868 36.3684 24.3235 35.8313 24.4626C34.7534 24.7413 33.6744 25.0274 32.5972 25.3289C29.7917 26.1195 26.9928 26.9805 24.2117 28.1617C21.283 29.3929 18.592 31.2467 16.2629 32.9663C15.9086 33.2188 15.5567 33.461 15.2947 33.6079C15.1764 33.6781 15.0561 33.7168 15.1497 33.6876C15.2007 33.6771 15.3292 33.6382 15.5954 33.6742C15.8596 33.7024 16.2345 33.8911 16.4138 34.0858C15.471 35.0286 14.5282 35.9714 13.5854 36.9142C13.9297 37.276 14.5167 37.5704 15.0083 37.6309C15.5007 37.7 15.86 37.6315 16.1363 37.564C16.6737 37.4193 16.9739 37.2466 17.2506 37.0971C17.7961 36.7865 18.1861 36.5046 18.584 36.224C21.014 34.4333 23.2452 32.9157 25.7874 31.8383C28.2773 30.7787 30.9643 29.943 33.675 29.1809C34.7183 28.8889 35.7692 28.6102 36.8332 28.3351C37.3641 28.1976 37.8954 28.0621 38.4371 27.9216C38.6961 27.8543 38.9869 27.7783 39.2598 27.7034C39.4124 27.6614 39.5519 27.6223 39.713 27.5733C39.7901 27.5498 39.8896 27.5186 39.9925 27.4822C40.0599 27.4583 40.1289 27.4327 40.2159 27.3952C40.2714 27.3708 40.3641 27.3303 40.4893 27.2566C40.5674 27.2071 40.5856 27.2069 40.7745 27.0552C40.9083 26.9345 41.115 26.7725 41.3248 26.3287C41.5518 25.9151 41.5762 24.9937 41.2089 24.4616C40.6371 23.658 40.3205 23.7025 40.1474 23.6019C39.9466 23.5342 39.9233 23.5367 39.8715 23.5234C39.7778 23.5032 39.7089 23.4928 39.6452 23.4842C39.5338 23.4698 39.4831 23.466 39.4061 23.4599C39.2696 23.4498 39.1725 23.446 39.0625 23.4423C38.8638 23.4361 38.6782 23.4347 38.4813 23.4352C38.1198 23.4363 37.7528 23.4454 37.4 23.458C36.6836 23.4841 35.9852 23.5257 35.2834 23.5789C33.8876 23.6853 32.4886 23.8381 31.0976 24.0406C28.3109 24.4599 25.5219 25.0146 22.7304 26.1538C19.6824 27.4626 16.8211 29.0865 14.3697 31.7804C14.007 32.204 13.6467 32.6606 13.3152 33.2819C13.1503 33.605 12.9816 33.955 12.8777 34.5114C12.7759 35.0106 12.7709 36.1099 13.5854 36.9142ZM16.4138 34.0858L13.5854 36.9142L16.4138 34.0858Z" fill="#FFF4ED"/>
<path d="M63.8025 41.4944C63.8025 41.4944 57.8025 42.4944 53.3025 38.4944C48.8025 34.4944 49.8025 29.9944 49.8025 29.9944" stroke="#E0440E" stroke-width="2" stroke-linecap="round"/>
<path d="M64.4904 37.0089C64.4904 37.0089 60.9904 38.0089 57.4904 36.0089C53.9904 34.0089 54.4904 30.0089 54.4904 30.0089" stroke="#E0440E" stroke-opacity="0.933333" stroke-width="2" stroke-linecap="round"/>
<path fill-rule="evenodd" clip-rule="evenodd" d="M67.7158 15.2287C68.3942 14.0539 69.8964 13.6512 71.0713 14.3293L71.2949 14.4748C72.3596 15.2522 72.6302 16.7577 71.8564 17.8645L59.6504 35.3186L57 33.7873L67.7158 15.2287Z" fill="#141414"/>
<path d="M51.7959 52.5986L55.3125 43.4063L57.0908 44.0866L53.5742 53.2789L51.7959 52.5986ZM57.5624 54.8046L61.0789 45.6123L62.8573 46.2926L59.3407 55.4849L57.5624 54.8046ZM54.4361 49.0668L55.0364 47.4977L60.1752 49.4636L59.5749 51.0327L54.4361 49.0668Z" fill="#141414"/>
<path fill-rule="evenodd" clip-rule="evenodd" d="M49.0104 31.8203C48.6074 31.8146 48.2102 31.8972 47.82 32.0693C47.4299 32.2414 47.0563 32.5192 46.6999 32.9014C46.3883 33.2356 46.1602 33.5966 46.0153 33.9844C45.8699 34.3593 45.8101 34.7517 45.8376 35.1602C45.8498 35.3978 45.8941 35.633 45.9684 35.8662H44.0495C44.0243 35.6933 44.0078 35.5188 44.0016 35.3428C43.9855 34.6896 44.0886 34.0516 44.3112 33.4297C44.5402 32.801 44.9036 32.2208 45.4001 31.6885C45.9348 31.1151 46.5018 30.699 47.1003 30.4404C47.6919 30.1756 48.3075 30.0289 48.947 30L49.0104 31.8203ZM54.2888 34.9043C54.3001 35.2287 54.2784 35.5496 54.2263 35.8662H52.403C52.4763 35.5669 52.4983 35.2671 52.4684 34.9678L54.2888 34.9043Z" fill="#141414"/>
<path fill-rule="evenodd" clip-rule="evenodd" d="M43.0864 42.5059C42.7134 42.7184 42.4208 42.959 42.2075 43.2266C41.9962 43.4851 41.8482 43.8015 41.7641 44.1748C41.6679 44.6025 41.6742 44.9576 41.7827 45.2402C41.7868 45.2508 41.792 45.2612 41.7964 45.2715H40.0307C39.9702 44.8011 39.999 44.3025 40.1176 43.7754C40.2652 43.1198 40.5215 42.5558 40.8862 42.083C41.2509 41.6102 41.6669 41.2488 42.1343 41L43.0864 42.5059ZM46.5298 42.1904C46.9036 42.1024 47.3415 42.1148 47.8423 42.2275C48.7344 42.4284 49.3644 42.9006 49.7329 43.6436C49.967 44.1157 50.0759 44.6582 50.062 45.2715H48.3735C48.3691 45.068 48.3352 44.8844 48.271 44.7207C48.1454 44.3865 47.9143 44.1814 47.5776 44.1055C47.2864 44.0399 47.0309 44.0686 46.812 44.1914C46.593 44.3143 46.3886 44.4978 46.1997 44.7422C46.0726 44.9022 45.9496 45.0792 45.8286 45.2715H43.5542C43.5949 45.2241 43.6357 45.174 43.6753 45.1211C43.855 44.8747 44.0354 44.6045 44.2163 44.3105C44.3993 44.0074 44.5949 43.7117 44.8032 43.4238C45.0136 43.1268 45.2577 42.8701 45.5356 42.6553C45.8155 42.4314 46.147 42.2764 46.5298 42.1904Z" fill="#141414"/>
<path d="M34.626 33.6211H34.627L36.8232 34.707C37.392 34.9884 37.8336 35.3483 38.1484 35.7852C38.4757 36.2177 38.6611 36.6841 38.7051 37.1846C38.7573 37.6894 38.6594 38.1934 38.4111 38.6953C38.1709 39.181 37.852 39.5534 37.457 39.8164H32.9717L32.8359 39.123L32.5391 38.9756L32.124 39.8164H30L33.3721 33L34.626 33.6211ZM33.1973 37.6455L34.791 38.4346C35.2093 38.6415 35.5838 38.697 35.9131 38.5996C36.2548 38.4979 36.5189 38.2582 36.7051 37.8818C36.8745 37.5391 36.8977 37.197 36.7754 36.8555C36.6654 36.5095 36.4016 36.2323 35.9834 36.0254L34.3887 35.2363L33.1973 37.6455Z" fill="#141414"/>
<path d="M32.0154 56.154C31.2967 56.154 30.6247 56.0233 29.9994 55.762C29.3834 55.5007 28.842 55.1413 28.3754 54.684C27.918 54.2173 27.5587 53.676 27.2974 53.06C27.036 52.4347 26.9054 51.7673 26.9054 51.058C26.9054 50.3487 27.0314 49.6907 27.2834 49.084C27.5447 48.468 27.904 47.9313 28.3614 47.474C28.828 47.0073 29.3694 46.648 29.9854 46.396C30.6014 46.1347 31.2687 46.004 31.9874 46.004C32.7154 46.004 33.3874 46.1347 34.0034 46.396C34.6194 46.648 35.156 47.0073 35.6134 47.474C36.08 47.9313 36.444 48.468 36.7054 49.084C36.9667 49.7 37.0974 50.3627 37.0974 51.072C37.0974 51.7813 36.9667 52.444 36.7054 53.06C36.444 53.676 36.08 54.2173 35.6134 54.684C35.156 55.1413 34.6194 55.5007 34.0034 55.762C33.3967 56.0233 32.734 56.154 32.0154 56.154ZM31.9874 54.376C32.622 54.376 33.1727 54.236 33.6394 53.956C34.106 53.676 34.47 53.2887 34.7314 52.794C35.002 52.2993 35.1374 51.7207 35.1374 51.058C35.1374 50.5727 35.0627 50.1293 34.9134 49.728C34.764 49.3267 34.5494 48.9813 34.2694 48.692C33.9894 48.3933 33.658 48.1647 33.2754 48.006C32.8927 47.8473 32.4634 47.768 31.9874 47.768C31.3714 47.768 30.8254 47.908 30.3494 48.188C29.8827 48.4587 29.514 48.8413 29.2434 49.336C28.982 49.8307 28.8514 50.4047 28.8514 51.058C28.8514 51.5527 28.926 52.0053 29.0754 52.416C29.234 52.8267 29.4487 53.1767 29.7194 53.466C29.9994 53.7553 30.3307 53.9793 30.7134 54.138C31.1054 54.2967 31.53 54.376 31.9874 54.376Z" fill="#141414"/>
<path fill-rule="evenodd" clip-rule="evenodd" d="M22.2061 38.0029C22.7107 38.0163 23.1495 38.1504 23.5225 38.4043C23.8915 38.65 24.1765 38.9787 24.377 39.3897C24.6224 39.893 24.6802 40.4053 24.5498 40.9258C24.4822 41.198 24.3589 41.4625 24.1836 41.7217C24.6172 41.7257 25.0134 41.809 25.3721 41.9727C25.9373 42.2162 26.3658 42.6359 26.6562 43.2315C26.7733 43.4715 26.8534 43.7159 26.8984 43.9639H24.8926C24.889 43.9563 24.8865 43.948 24.8828 43.9404C24.7683 43.7056 24.6137 43.5159 24.4189 43.3721C24.2242 43.2284 23.9995 43.1515 23.7451 43.1406C23.495 43.1173 23.2317 43.1728 22.9551 43.3076L21.6094 43.9639H18.8662L17 40.1367L18.6992 39.3086L20.5742 38.3945C21.1614 38.1082 21.7054 37.9771 22.2061 38.0029ZM22.0254 39.7422C21.7299 39.6684 21.4059 39.717 21.0537 39.8887L19.3799 40.7041L20.417 42.8311L22.0908 42.0156C22.4432 41.8438 22.6809 41.6183 22.8047 41.3399C22.9368 41.0574 22.9179 40.74 22.7461 40.3877C22.5702 40.027 22.3294 39.812 22.0254 39.7422Z" fill="#141414"/>
<mask id="path-17-inside-1_295_435" fill="white">
<path d="M7.12988 36C8.65196 44.9626 23.6809 52 42 52C60.3191 52 75.3471 44.9626 76.8691 36H76.9404C76.2021 49.1051 68.2541 60.2803 57 65.6279V70H27V65.6279C15.7455 60.2803 7.79691 49.1052 7.05859 36H7.12988Z"/>
</mask>
<path d="M7.12988 36C8.65196 44.9626 23.6809 52 42 52C60.3191 52 75.3471 44.9626 76.8691 36H76.9404C76.2021 49.1051 68.2541 60.2803 57 65.6279V70H27V65.6279C15.7455 60.2803 7.79691 49.1052 7.05859 36H7.12988Z" fill="#FFF4ED"/>
<path d="M7.12988 36L9.10165 35.6651L8.81887 34H7.12988V36ZM76.8691 36V34H75.1802L74.8974 35.6651L76.8691 36ZM76.9404 36L78.9373 36.1125L79.0563 34H76.9404V36ZM57 65.6279L56.1416 63.8215L55 64.364V65.6279H57ZM57 70V72H59V70H57ZM27 70H25V72H27V70ZM27 65.6279H29V64.3639L27.8583 63.8215L27 65.6279ZM7.05859 36V34H4.94275L5.06176 36.1125L7.05859 36ZM7.12988 36L5.15811 36.3349C6.08669 41.8027 10.9877 46.2035 17.4277 49.1768C23.9738 52.199 32.6061 54 42 54V52V50C33.0748 50 25.0331 48.2823 19.1044 45.5452C13.0697 42.759 9.69516 39.1599 9.10165 35.6651L7.12988 36ZM42 52V54C51.3939 54 60.026 52.199 66.5718 49.1768C73.0117 46.2035 77.9124 41.8026 78.8409 36.3349L76.8691 36L74.8974 35.6651C74.3039 39.16 70.9295 42.7591 64.8951 45.5452C58.9666 48.2823 50.9252 50 42 50V52ZM76.8691 36V38H76.9404V36V34H76.8691V36ZM76.9404 36L74.9436 35.8875C74.2478 48.2383 66.7571 58.7773 56.1416 63.8215L57 65.6279L57.8584 67.4344C69.7512 61.7832 78.1565 49.972 78.9373 36.1125L76.9404 36ZM57 65.6279H55V70H57H59V65.6279H57ZM57 70V68H27V70V72H57V70ZM27 70H29V65.6279H27H25V70H27ZM27 65.6279L27.8583 63.8215C17.2425 58.7773 9.75124 48.2383 9.05543 35.8875L7.05859 36L5.06176 36.1125C5.84258 49.9722 14.2485 61.7833 26.1417 67.4344L27 65.6279ZM7.05859 36V38H7.12988V36V34H7.05859V36Z" fill="black" mask="url(#path-17-inside-1_295_435)"/>
</svg>
