<svg width="20" height="20" viewBox="0 0 20 20" fill="none" xmlns="http://www.w3.org/2000/svg">
<path d="M18.9869 10.4728C18.8932 12.209 18.2986 13.8808 17.275 15.2863C16.2514 16.6917 14.8426 17.7705 13.2189 18.3924C11.5953 19.0142 9.82624 19.1525 8.12569 18.7904C6.42514 18.4283 4.86587 17.5814 3.63638 16.352C2.40688 15.1226 1.5598 13.5635 1.19753 11.863C0.835263 10.1624 0.973312 8.3934 1.59499 6.76967C2.21668 5.14593 3.29537 3.73704 4.70069 2.71328C6.10601 1.68953 7.77778 1.09475 9.51392 1.00085C9.91892 0.978849 10.1309 1.46085 9.91592 1.80385C9.19681 2.9544 8.88889 4.31472 9.04241 5.6628C9.19594 7.01088 9.80184 8.26713 10.7612 9.22653C11.7206 10.1859 12.9769 10.7918 14.325 10.9454C15.673 11.0989 17.0334 10.791 18.1839 10.0718C18.5279 9.85685 19.0089 10.0678 18.9869 10.4728Z" stroke="currentColor" stroke-width="2" stroke-linecap="round" stroke-linejoin="round"/>
</svg>
