<svg width="22" height="22" viewBox="0 0 22 22" fill="none" xmlns="http://www.w3.org/2000/svg">
<path d="M9.268 20.0001C9.44354 20.3041 9.69602 20.5566 10 20.7321C10.3041 20.9076 10.6489 21 11 21C11.3511 21 11.6959 20.9076 12 20.7321C12.304 20.5566 12.5565 20.3041 12.732 20.0001M21 7.00012C21 4.70012 20.2 2.70012 19 1.00012M3 1.00012C1.8 2.70012 1 4.70012 1 7.00012M2.262 14.3261C2.13136 14.4693 2.04515 14.6474 2.01386 14.8386C1.98256 15.0299 2.00752 15.2262 2.08571 15.4035C2.16389 15.5809 2.29194 15.7317 2.45426 15.8376C2.61658 15.9435 2.80618 16 3 16.0001H19C19.1938 16.0002 19.3834 15.9439 19.5459 15.8382C19.7083 15.7325 19.8365 15.5819 19.9149 15.4046C19.9933 15.2274 20.0185 15.0312 19.9874 14.8399C19.9564 14.6486 19.8704 14.4705 19.74 14.3271C18.41 12.9561 17 11.4991 17 7.00012C17 5.40882 16.3679 3.8827 15.2426 2.75748C14.1174 1.63226 12.5913 1.00012 11 1.00012C9.4087 1.00012 7.88258 1.63226 6.75736 2.75748C5.63214 3.8827 5 5.40882 5 7.00012C5 11.4991 3.589 12.9561 2.262 14.3261Z" stroke="currentColor" stroke-width="2" stroke-linecap="round" stroke-linejoin="round"/>
</svg>
