<svg width="32" height="32" viewBox="0 0 32 32" fill="none" xmlns="http://www.w3.org/2000/svg">
<rect x="1" y="1" width="30" height="30" rx="9" fill="#FFF4ED" stroke="black" stroke-width="2"/>
<mask id="path-2-inside-1_301_631" fill="white">
<path d="M2.71875 13.7141C3.29849 17.1284 9.02441 19.8097 16.0029 19.8098C22.9816 19.8098 28.7063 17.1284 29.2861 13.7141H29.3135C29.0322 18.7085 26.0018 22.9657 21.7119 25.0022V26.6663H10.2832V24.9973C5.99889 22.9587 2.97242 18.7042 2.69141 13.7141H2.71875Z"/>
</mask>
<path d="M2.71875 13.7141C3.29849 17.1284 9.02441 19.8097 16.0029 19.8098C22.9816 19.8098 28.7063 17.1284 29.2861 13.7141H29.3135C29.0322 18.7085 26.0018 22.9657 21.7119 25.0022V26.6663H10.2832V24.9973C5.99889 22.9587 2.97242 18.7042 2.69141 13.7141H2.71875Z" fill="#FFF4ED"/>
<path d="M2.71875 13.7141L4.69053 13.3793L4.40778 11.7141H2.71875V13.7141ZM16.0029 19.8098L16.0029 21.8098H16.0029L16.0029 19.8098ZM29.2861 13.7141V11.7141H27.5971L27.3144 13.3793L29.2861 13.7141ZM29.3135 13.7141L31.3103 13.8266L31.4293 11.7141H29.3135V13.7141ZM21.7119 25.0022L20.8542 23.1954L19.7119 23.7377V25.0022H21.7119ZM21.7119 26.6663V28.6663H23.7119V26.6663H21.7119ZM10.2832 26.6663H8.2832V28.6663H10.2832V26.6663ZM10.2832 24.9973H12.2832V23.7341L11.1425 23.1913L10.2832 24.9973ZM2.69141 13.7141V11.7141H0.575608L0.69457 13.8266L2.69141 13.7141ZM2.71875 13.7141L0.746972 14.0489C1.20436 16.7426 3.54409 18.6674 6.12294 19.8581C8.80782 21.0977 12.2792 21.8097 16.0029 21.8098L16.0029 19.8098L16.003 17.8098C12.7481 17.8097 9.86729 17.1811 7.79965 16.2265C5.62598 15.2229 4.81288 14.0999 4.69053 13.3793L2.71875 13.7141ZM16.0029 19.8098L16.0029 21.8098C19.7267 21.8098 23.1979 21.0978 25.8825 19.8581C28.4613 18.6673 30.8005 16.7425 31.2579 14.049L29.2861 13.7141L27.3144 13.3793C27.192 14.1 26.3789 15.223 24.2056 16.2266C22.1383 17.1812 19.2578 17.8098 16.0029 17.8098L16.0029 19.8098ZM29.2861 13.7141V15.7141H29.3135V13.7141V11.7141H29.2861V13.7141ZM29.3135 13.7141L27.3166 13.6017C27.0779 17.841 24.5054 21.4621 20.8542 23.1954L21.7119 25.0022L22.5696 26.8089C27.4982 24.4693 30.9865 19.5761 31.3103 13.8266L29.3135 13.7141ZM21.7119 25.0022H19.7119V26.6663H21.7119H23.7119V25.0022H21.7119ZM21.7119 26.6663V24.6663H10.2832V26.6663V28.6663H21.7119V26.6663ZM10.2832 26.6663H12.2832V24.9973H10.2832H8.2832V26.6663H10.2832ZM10.2832 24.9973L11.1425 23.1913C7.49582 21.4561 4.92676 17.8371 4.68824 13.6017L2.69141 13.7141L0.69457 13.8266C1.01809 19.5713 4.50195 24.4613 9.42388 26.8033L10.2832 24.9973ZM2.69141 13.7141V15.7141H2.71875V13.7141V11.7141H2.69141V13.7141Z" fill="black" mask="url(#path-2-inside-1_301_631)"/>
<path d="M15.999 8.23804C19.5593 8.23804 22.7337 8.96135 24.9805 10.0847C27.287 11.238 28.333 12.6469 28.333 13.905C28.3328 15.163 27.2867 16.5712 24.9805 17.7244C22.7337 18.8477 19.5593 19.571 15.999 19.571C12.4389 19.571 9.26522 18.8477 7.01855 17.7244C4.7122 16.5712 3.6662 15.1631 3.66602 13.905C3.66602 12.6469 4.712 11.238 7.01855 10.0847C9.26521 8.96144 12.439 8.23808 15.999 8.23804Z" fill="#FF5A1F" stroke="black" stroke-width="2"/>
<path d="M5.71102 14.1878C5.94673 13.9521 6.18243 13.7164 6.41813 13.4807C6.51495 13.5779 6.49871 13.6907 6.49926 13.675C6.49904 13.6711 6.51364 13.6249 6.53994 13.5763C6.5921 13.4767 6.68109 13.3557 6.77889 13.243C7.47271 12.471 8.47539 11.8679 9.49498 11.4387C10.3846 11.0734 11.3825 10.8655 12.3792 10.7175C12.8781 10.6448 13.3845 10.5895 13.8874 10.5512C14.14 10.532 14.3913 10.5171 14.6435 10.5079C14.7673 10.5035 14.8953 10.5004 15.0139 10.5C15.0781 10.4998 15.1372 10.5004 15.1911 10.5021C15.2203 10.5031 15.2454 10.5042 15.2673 10.5059C15.2784 10.5067 15.2857 10.5075 15.2867 10.5077C15.2866 10.5076 15.2828 10.5073 15.2703 10.5046C15.2625 10.5025 15.2622 10.5042 15.2214 10.4905C15.1859 10.4681 15.1117 10.4822 14.9706 10.2843C14.88 10.1533 14.8861 9.92513 14.9418 9.82411C14.9932 9.71553 15.0427 9.67761 15.0728 9.6502C15.1151 9.6163 15.1176 9.61739 15.1326 9.60774C15.1561 9.59406 15.166 9.59028 15.1693 9.58873C15.1747 9.58643 15.1718 9.5878 15.1647 9.59027C15.1538 9.59417 15.1311 9.60151 15.1114 9.60748C15.0695 9.62021 15.0237 9.63317 14.9723 9.64729C14.8796 9.67275 14.7724 9.70082 14.676 9.72584C14.4741 9.77823 14.2703 9.83022 14.0661 9.88308C13.6563 9.98903 13.2471 10.0975 12.839 10.2118C11.7764 10.5111 10.7175 10.8374 9.67714 11.2794C8.58672 11.7384 7.5917 12.4226 6.6978 13.0824C6.55998 13.1804 6.42345 13.2752 6.30506 13.3419C6.24963 13.3738 6.19203 13.3974 6.18636 13.3976C6.15877 13.3948 6.33414 13.3839 6.41813 13.4807C6.18243 13.7164 5.94673 13.9521 5.71102 14.1878C5.91906 14.4173 6.29634 14.4152 6.43302 14.3667C6.59643 14.323 6.69899 14.266 6.79403 14.2142C6.9833 14.1066 7.12938 14.0018 7.27809 13.8968C8.19721 13.2193 9.07729 12.6191 10.0711 12.1986C11.0386 11.787 12.0696 11.467 13.1084 11.1748C13.5081 11.0629 13.9103 10.9563 14.3166 10.8512C14.5192 10.7987 14.7219 10.747 14.9273 10.6938C15.0255 10.6682 15.1356 10.6395 15.2372 10.6116C15.2939 10.596 15.3455 10.5815 15.4029 10.564C15.4302 10.5557 15.465 10.5448 15.4983 10.533C15.5201 10.5252 15.5416 10.5172 15.5667 10.5064C15.5828 10.4993 15.6087 10.4879 15.6416 10.4685C15.6621 10.4555 15.6671 10.4553 15.7153 10.4165C15.7495 10.3858 15.8016 10.3447 15.8543 10.2333C15.9112 10.1294 15.9173 9.89858 15.8252 9.76514C15.6819 9.56359 15.6018 9.57412 15.5568 9.5484C15.5047 9.5308 15.4977 9.5312 15.4837 9.52764C15.458 9.52207 15.438 9.51902 15.4188 9.51643C15.3849 9.51206 15.3681 9.51073 15.3426 9.50871C15.2968 9.50534 15.2623 9.50394 15.223 9.50263C15.1518 9.5004 15.0836 9.49985 15.0108 9.50004C14.877 9.50047 14.7397 9.50384 14.6075 9.50859C14.3389 9.51835 14.0759 9.53402 13.8116 9.55404C13.2858 9.59413 12.7584 9.65173 12.2349 9.72795C11.1868 9.88526 10.1377 10.0958 9.11036 10.5156C7.97862 10.9997 6.90673 11.6152 6.02268 12.5886C5.89289 12.7399 5.76565 12.9029 5.65474 13.1111C5.5995 13.2187 5.54553 13.334 5.51421 13.5028C5.48336 13.6567 5.48525 13.9652 5.71102 14.1878ZM6.41813 13.4807L5.71102 14.1878L6.41813 13.4807Z" fill="#FFF4ED"/>
<path d="M23.639 16.5217C23.639 16.5217 21.3533 16.9027 19.639 15.3789C17.9248 13.8551 18.3057 12.1408 18.3057 12.1408" stroke="#E0440E" stroke-width="0.75" stroke-linecap="round"/>
<path d="M23.9017 14.8131C23.9017 14.8131 22.5683 15.194 21.235 14.4321C19.9017 13.6702 20.0922 12.1464 20.0922 12.1464" stroke="#E0440E" stroke-opacity="0.933333" stroke-width="0.75" stroke-linecap="round"/>
<path d="M25.4248 5.58716C25.8015 4.93481 26.6356 4.71074 27.2881 5.08716C27.981 5.48722 28.1831 6.3953 27.7246 7.05103L23.0957 13.6682L21.3418 12.6555L25.4248 5.58716Z" fill="black"/>
<path d="M18.9003 19.1397L20.4074 15.2001L21.1696 15.4917L19.6625 19.4312L18.9003 19.1397ZM21.3717 20.0851L22.8788 16.1455L23.6409 16.4371L22.1338 20.3766L21.3717 20.0851ZM20.0319 17.626L20.2891 16.9536L22.4915 17.7961L22.2342 18.4686L20.0319 17.626Z" fill="black"/>
<path d="M18.5918 10.7803C18.4191 10.7778 18.2483 10.813 18.0811 10.8867C17.914 10.9605 17.7542 11.0795 17.6016 11.2432C17.4679 11.3865 17.3697 11.5417 17.3076 11.708C17.2454 11.8685 17.2198 12.0361 17.2314 12.2109V12.2119H16.4463C16.4486 11.9591 16.4916 11.7115 16.5781 11.4697C16.6763 11.2005 16.8313 10.9517 17.0439 10.7236C17.2731 10.478 17.516 10.2993 17.7725 10.1885C18.026 10.0749 18.2904 10.0124 18.5645 10L18.5918 10.7803ZM20.8516 12.2119H20.0771C20.0764 12.1844 20.076 12.1565 20.0732 12.1289L20.8535 12.1016C20.8548 12.1383 20.8522 12.1754 20.8516 12.2119Z" fill="black"/>
<path d="M16.3252 14.7092C16.1654 14.8003 16.0397 14.9032 15.9482 15.0178C15.8577 15.1286 15.7938 15.2641 15.7578 15.4241C15.7258 15.5662 15.7215 15.6895 15.7422 15.7942H15.0068C14.9957 15.6223 15.0102 15.4421 15.0527 15.2532C15.116 14.9722 15.2255 14.7302 15.3818 14.5276C15.5381 14.325 15.7167 14.1703 15.917 14.0637L16.3252 14.7092ZM17.8008 14.5735C17.9609 14.5358 18.1487 14.5418 18.3633 14.5901C18.7455 14.6762 19.016 14.8782 19.1738 15.1965C19.2612 15.3728 19.3067 15.5721 19.3135 15.7942H18.5811C18.5738 15.7459 18.5634 15.7006 18.5469 15.6584C18.493 15.5151 18.3934 15.4273 18.249 15.3948C18.1243 15.3668 18.0147 15.3783 17.9209 15.4309C17.8272 15.4836 17.7401 15.5626 17.6592 15.6672C17.6277 15.7069 17.598 15.7499 17.5674 15.7942H16.6016C16.6702 15.6982 16.7396 15.5947 16.8086 15.4827C16.887 15.3527 16.9713 15.2252 17.0605 15.1018C17.1507 14.9746 17.256 14.8647 17.375 14.7727C17.4949 14.6769 17.6369 14.6103 17.8008 14.5735Z" fill="black"/>
<path d="M12.5967 11.4902L13.5381 11.9551C13.7819 12.0757 13.9715 12.2298 14.1064 12.417C14.2468 12.6024 14.3259 12.803 14.3447 13.0176C14.3671 13.2339 14.3251 13.45 14.2188 13.665C14.21 13.6827 14.1987 13.6988 14.1895 13.7158H10.8262L12.0596 11.2236L12.5967 11.4902ZM11.9834 13.2139L12.667 13.5527C12.8463 13.6414 13.0073 13.6648 13.1484 13.623C13.2946 13.5794 13.4076 13.4774 13.4873 13.3164C13.56 13.1694 13.5701 13.0224 13.5176 12.876C13.4704 12.7277 13.357 12.6092 13.1777 12.5205L12.4941 12.1816L11.9834 13.2139Z" fill="black"/>
<path d="M11.7806 20.6143C11.4726 20.6143 11.1846 20.5583 10.9166 20.4463C10.6526 20.3343 10.4206 20.1803 10.2206 19.9843C10.0246 19.7843 9.87058 19.5523 9.75858 19.2883C9.64658 19.0203 9.59058 18.7343 9.59058 18.4303C9.59058 18.1263 9.64458 17.8443 9.75258 17.5843C9.86458 17.3203 10.0186 17.0903 10.2146 16.8943C10.4146 16.6943 10.6466 16.5403 10.9106 16.4323C11.1746 16.3203 11.4606 16.2643 11.7686 16.2643C12.0806 16.2643 12.3686 16.3203 12.6326 16.4323C12.8966 16.5403 13.1266 16.6943 13.3226 16.8943C13.5226 17.0903 13.6786 17.3203 13.7906 17.5843C13.9026 17.8483 13.9586 18.1323 13.9586 18.4363C13.9586 18.7403 13.9026 19.0243 13.7906 19.2883C13.6786 19.5523 13.5226 19.7843 13.3226 19.9843C13.1266 20.1803 12.8966 20.3343 12.6326 20.4463C12.3726 20.5583 12.0886 20.6143 11.7806 20.6143ZM11.7686 19.8523C12.0406 19.8523 12.2766 19.7923 12.4766 19.6723C12.6766 19.5523 12.8326 19.3863 12.9446 19.1743C13.0606 18.9623 13.1186 18.7143 13.1186 18.4303C13.1186 18.2223 13.0866 18.0323 13.0226 17.8603C12.9586 17.6883 12.8666 17.5403 12.7466 17.4163C12.6266 17.2883 12.4846 17.1903 12.3206 17.1223C12.1566 17.0543 11.9726 17.0203 11.7686 17.0203C11.5046 17.0203 11.2706 17.0803 11.0666 17.2003C10.8666 17.3163 10.7086 17.4803 10.5926 17.6923C10.4806 17.9043 10.4246 18.1503 10.4246 18.4303C10.4246 18.6423 10.4566 18.8363 10.5206 19.0123C10.5886 19.1883 10.6806 19.3383 10.7966 19.4623C10.9166 19.5863 11.0586 19.6823 11.2226 19.7503C11.3906 19.8183 11.5726 19.8523 11.7686 19.8523Z" fill="black"/>
<path d="M8.23047 13.1729C8.44679 13.1786 8.63504 13.2359 8.79492 13.3447C8.95309 13.4501 9.07522 13.5914 9.16113 13.7676C9.2662 13.9832 9.2912 14.2028 9.23535 14.4258C9.20634 14.5425 9.15241 14.6555 9.07715 14.7666C9.26313 14.7682 9.43309 14.8039 9.58691 14.874C9.78981 14.9614 9.95101 15.1026 10.0713 15.2959H6.58887L5.99902 14.0879L6.72754 13.7324L7.53125 13.3408C7.78289 13.2181 8.01593 13.1618 8.23047 13.1729ZM8.15332 13.918C8.02662 13.8863 7.88733 13.9078 7.73633 13.9814L7.01855 14.3301L7.46289 15.2412L8.18066 14.8926C8.33156 14.819 8.43421 14.7227 8.4873 14.6035C8.54393 14.4825 8.53542 14.3462 8.46191 14.1953C8.38653 14.0407 8.28359 13.9479 8.15332 13.918Z" fill="black"/>
</svg>
